<svg id="Layer_1" data-name="Layer 1" xmlns="http://www.w3.org/2000/svg" viewBox="0 0 562.3 274.05"><defs><style>.cls-1{fill:#fcfcfc;}.cls-2{fill:#ea8254;}</style></defs><title>all-user</title><path class="cls-1" d="M334,496.79l27.55-70.53c12,4.9,23.87,9.63,35.64,14.56,7.31,3.06,14.62,6.19,21.72,9.71,9.83,4.89,15.61,12.8,15.65,24.25.08,20.29,0,40.57,0,61.19H191.89c-.23-.44-.48-.69-.48-.94.15-21,.19-42.08.55-63.12.14-7.82,4-14,10.42-18.23a82.17,82.17,0,0,1,12.47-6.92c15.35-6.62,30.81-13,46.23-19.41,1-.43,2.11-.73,3.43-1.18,8.89,22.67,17.7,45.11,26.93,68.64.72-2.31,1.19-3.56,1.51-4.86,2.7-10.9,5.25-21.85,8.11-32.71,1.41-5.38,3.1-10.56-3.12-13.7l14.56-14.66,14.62,14.63c-6.79,3.47-4.41,9-3,14.52,3.07,11.86,5.9,23.79,8.84,35.68C333.16,494.38,333.42,495,334,496.79Z" transform="translate(-31.7 -262)"/><path class="cls-2" d="M312.88,262c24.47-.13,46.07,15.39,55.28,40.94,3.22,8.93,4.26,18.69,6.12,28.1.38,1.93.32,3.39,2.74,4.18,5.38,1.76,7.57,5.79,6.68,11.62-1.14,7.48-5.05,13.19-11.05,17.63A11.81,11.81,0,0,0,369,369c-5.06,11.78-11.49,22.5-21.25,31-4.24,3.69-7.65,8.39-12,11.91-18.3,14.85-37.51,11.24-52.63-5.82-5.27-5.95-10.84-11.7-15.46-18.14-4-5.6-6.79-12.09-10.29-18.09a22.18,22.18,0,0,0-4.62-5.91c-5.22-4.32-8.92-9.49-10.17-16.28-1.19-6.5.89-10,6.88-12.8,1.12-.52,2.12-2.49,2.24-3.88,1.2-13.23,4-25.95,10.52-37.66C273.06,273.8,291.93,262.11,312.88,262Z" transform="translate(-31.7 -262)"/><path class="cls-2" d="M541.27,357.58c8.59,3.59,10.16,8.47,6.23,16.73a31,31,0,0,1-8.9,11c-2.37,1.92-3.7,5.45-4.93,8.49-3.8,9.44-10.2,16.86-17.35,23.74-3.54,3.4-6.89,7.08-10.77,10-12.84,9.76-26.06,10-38.5-.28-12.6-10.37-23.39-22.46-29.43-38.21a14.64,14.64,0,0,0-3.81-4.95c-5.05-4.78-9.42-9.88-9.25-17.47.08-3.71,1.55-6.75,5.18-7.73,2.79-.75,3.08-2.49,3.25-4.79.8-11.2,3.28-22,8.77-31.81,9.91-17.75,24.63-28.19,45.08-28.25s35.24,10.32,45.22,28C538.21,333,540.51,345,541.27,357.58Z" transform="translate(-31.7 -262)"/><path class="cls-2" d="M141.23,293.85c20.14,1.13,35.36,12.18,44.88,31.76,4.32,8.89,6.36,18.44,7.07,28.28.18,2.47.51,4.28,3.46,5.09,3.4.94,4.89,3.89,5,7.43.14,7.52-3.62,12.93-9,17.59a16,16,0,0,0-4.31,5.6c-6.72,15.76-17.89,27.65-31,38-7.41,5.85-15.47,8.6-24.57,6.35-7.42-1.84-13.47-6.49-18.85-11.89-10.16-10.21-20-20.66-24.64-34.92-.32-1-1.55-1.61-2.19-2.52-3.1-4.43-6.95-8.55-9-13.45-2.56-6.11-.42-9.25,5.44-12.58,1.29-.73,2.15-3.27,2.21-5,.45-15.44,5.28-29.26,15-41.09C110.67,300.28,123.79,294.11,141.23,293.85Z" transform="translate(-31.7 -262)"/><path class="cls-1" d="M125.5,454.23l13.34-12.67,12.91,12.7c-6.41,2.94-4,7.94-2.83,12.68q3.72,15.09,7.49,30.17c.28,1.1.68,2.17,1.31,4.19,8.33-21.26,16.32-41.68,24.44-62.42l10.59,4.35c-.13.46-.13.84-.31,1-10.64,8.71-14.29,20.47-14.32,33.8q-.06,26.53-.05,53.07v5H32.14a17.54,17.54,0,0,1-.43-2.78c0-16.08.3-32.17,0-48.25-.23-12.12,4.84-20.6,15.59-25.36,16.08-7.12,32.31-13.87,48.91-21l23.47,59.95h.9q1.28-5.19,2.56-10.39c1.83-7.37,3.47-14.79,5.57-22.08C130.08,461.39,131,457.06,125.5,454.23Z" transform="translate(-31.7 -262)"/><path class="cls-1" d="M473.24,454.19l13.11-13.07,12.65,13c0-.3.1.11-.05.22-4.37,3-3.86,6.92-2.62,11.46,2.82,10.27,5.2,20.66,7.77,31,.3,1.22.71,2.41,1.35,4.55,8.36-21.34,16.36-41.78,24.49-62.55,13.79,5.78,27.26,11.26,40.6,17.07a112.48,112.48,0,0,1,14.85,7.92c5,3.17,8.33,8.18,8.43,14.13.32,19.25.12,38.51.12,58.06H448.12v-4.84c0-14.91-.14-29.82,0-44.73.19-16.14-.64-31.82-15.5-42.84L444,438.83l23.41,59.81.91-.07,5.55-22.29c.81-3.26,1.48-6.56,2.45-9.77C477.77,461.74,479.07,457.11,473.24,454.19Z" transform="translate(-31.7 -262)"/></svg>