<svg id="Layer_1" data-name="Layer 1" xmlns="http://www.w3.org/2000/svg" viewBox="0 0 463.85 426.61"><defs><style>.cls-1{fill:#fff;}.cls-2{fill:#ea8254;}.cls-3{fill:red;}</style></defs><title>user-remove</title><path class="cls-1" d="M353.58,530.64H85.48a28.45,28.45,0,0,1-.44-3.49q0-38.49.11-77c0-3.66.2-7.33.52-11,1.1-12.43,6.65-21.8,17.75-28.29,13.88-8.1,28.61-14,43.53-19.74,13.35-5.11,26.37-11.07,39.54-16.64,1.5-.64,3-1.19,5-1.94l38.86,97.8,1-.1q4.68-18.76,9.37-37.52c1.86-7.43,3.53-14.92,5.72-22.25,1.19-4,.8-7-2.76-9.47-1.5-1-2.85-2.25-4-3.19,7.83-7.73,15-14.79,22.13-21.85l20.68,20.91c-.05.11-.08.76-.41,1-6.83,4.53-6.71,10.31-4.65,17.66,5.3,18.89,9.73,38,15.62,57.42,13.28-33.33,26.55-66.66,40-100.45l37,15.3C333.77,432.14,327.45,479.27,353.58,530.64Z" transform="translate(-85.04 -136.82)"/><path class="cls-2" d="M262,136.82c34.39.22,64.84,21.64,79.38,56.09,6,14.11,8.88,28.92,9.92,44.14.16,2.43.22,4.18,3.38,5C362.44,244.13,366,249.88,365,258c-1.33,11.08-7.08,19.46-15.92,26.08a18,18,0,0,0-5.63,7,128.8,128.8,0,0,1-30.25,44.2c-5.8,5.49-11.25,11.4-17.34,16.54-9.73,8.23-20.86,13.86-33.9,13.94-15.91.09-28.73-7.28-39.89-18-4.08-3.91-7.91-8.08-11.93-12.05a130.93,130.93,0,0,1-29.66-45.2,15.72,15.72,0,0,0-5-6.3c-9.26-6.95-15.47-15.62-16.11-27.46-.43-8.08,2.89-12.25,10.4-15a6.2,6.2,0,0,0,3.11-4.47c1.17-14.19,3.49-28.13,8.88-41.36,12.36-30.37,33.33-51,66.39-57.48C252.72,137.54,257.41,137.34,262,136.82Z" transform="translate(-85.04 -136.82)"/><path class="cls-3" d="M455.86,377.46c51.68.25,93,41.3,93,93a92.92,92.92,0,0,1-92.81,92.93c-51.11.14-93.13-41.59-93.16-92.69A93,93,0,0,1,455.86,377.46Zm-.18,161.65c37.66.22,68.67-30.26,69-67.8a68.71,68.71,0,1,0-69,67.8Z" transform="translate(-85.04 -136.82)"/><path class="cls-3" d="M456,482.64c-12.5,0-25,0-37.48,0-8.33,0-11.62-3.46-11.63-12,0-8.94,3.21-12.49,11.71-12.5q37.47-.08,74.95,0c8.17,0,11.34,3.59,11.34,12.31s-3.2,12.16-11.42,12.19C481,482.68,468.53,482.65,456,482.64Z" transform="translate(-85.04 -136.82)"/></svg>