<?xml version="1.0" encoding="utf-8"?>
<!-- Generator: Adobe Illustrator 24.0.1, SVG Export Plug-In . SVG Version: 6.00 Build 0)  -->
<svg version="1.1" id="Layer_1" xmlns="http://www.w3.org/2000/svg" xmlns:xlink="http://www.w3.org/1999/xlink" x="0px" y="0px"
	 viewBox="0 0 380.16 424.8" style="enable-background:new 0 0 380.16 424.8;" xml:space="preserve">
<style type="text/css">
	.st0{display:none;fill:#FFFFFF;}
	.st1{fill:#F7F7F7;}
	.st2{fill:#EA8254;}
	.st3{display:none;}
</style>
<g>
	<g>
		<g>
			<path class="st0" d="M-307.2-188.48c333.33,0,666.67,0,1000,0c0,266.67,0,533.33,0,800c-333.33,0-666.67,0-1000,0
				C-307.2,344.85-307.2,78.19-307.2-188.48z M223.19,351.75c-0.73-2.44-1.2-3.82-1.55-5.24c-4.34-17.28-8.29-34.66-13.14-51.79
				c-2.24-7.91-3.23-14.67,4.54-19.9c0.1-0.07,0.08-0.31-0.01,0.08c-7.26-7.39-14.3-14.56-20.47-20.84
				c-7.09,6.96-14.27,14-21.95,21.53c0.74,0.56,1.79,1.4,2.89,2.15c4.36,2.98,4.57,6.69,3.24,11.63
				c-4.89,18.16-9.27,36.46-13.87,54.7c-0.32,1.29-0.84,2.53-1.59,4.73c-13.29-33.51-26.15-65.95-39.05-98.51
				c-1.05,0.24-1.71,0.29-2.3,0.53c-24.62,10.16-49.23,20.31-73.83,30.5c-20.64,8.55-31.38,23.06-30.55,46.35
				c0.9,25.46,0.16,50.98,0.15,76.47c0,1.27,0.2,2.55,0.31,3.91c118.05,0,235.76,0,353.64,0c0.1-1.61,0.25-2.91,0.25-4.22
				c-0.01-25.49-0.63-51,0.13-76.47c0.65-21.72-8.49-36.32-28.09-44.87c-1.68-0.73-3.31-1.56-5-2.26
				c-22.91-9.48-45.83-18.95-68.75-28.41c-1.47-0.61-2.98-1.12-4.7-1.77C250.04,284,236.81,317.38,223.19,351.75z M197.97,14.67
				c-37.65-0.05-66.83,19.14-82.07,50.73c-7.41,15.36-11.06,31.67-12.15,48.62c-0.14,2.21,0.35,4.43-2.91,5.46
				c-8.97,2.83-12.37,8.67-10.64,17.95c1.92,10.32,7.53,18.28,16.06,24.38c1.99,1.43,3.83,3.65,4.75,5.91
				c4.99,12.26,10.85,24.11,19.64,34.02c8.55,9.64,17.78,18.71,27.12,27.6c10.2,9.7,22.69,14.45,36.76,13.9
				c10.57-0.41,20.05-4.66,28.36-11.07c5.11-3.94,9.69-8.56,14.47-12.92c15.82-14.42,28.91-30.77,36.85-50.94
				c1-2.54,3.16-4.96,5.38-6.64c9.56-7.2,15.8-16.2,16.12-28.46c0.18-6.98-3.25-11.82-9.66-13.44c-3.35-0.84-4.06-2.45-4.21-5.49
				c-0.78-15.43-3.79-30.44-10.14-44.55C256.41,35.82,230.79,16.45,197.97,14.67z M640.31,595.43c3.49,0.1,5.2-2.22,4.18-5.51
				c-0.34-1.08-0.19-2.29-0.45-3.41c-0.33-1.44-0.45-3.32-1.4-4.11c-0.87-0.72-3.14-0.78-4.05-0.11c-1.02,0.76-1.34,2.61-1.72,4.05
				c-0.29,1.11,0.06,2.4-0.31,3.46C635.41,593.06,636.86,595.34,640.31,595.43z M650.39,580.61c-1,2.2-1.92,3.9-2.53,5.7
				c-0.4,1.21-0.1,2.67-0.54,3.86c-1.29,3.45,0.76,4.95,3.45,5.14c9.17,0.63,2.14-6.86,4.47-9.82
				C655.38,585.32,652.76,582.98,650.39,580.61z M593.1,593.93c-0.14,0.35-0.27,0.7-0.41,1.05c1.84-0.13,4.64,0.42,5.33-0.54
				c1.51-2.09,2.49-4.91,2.67-7.51c0.23-3.16-1.77-5.82-5.17-5.05c-1.52,0.34-3.5,3.16-3.5,4.85c0.01,3.63,2.87,3.85,5.81,3.05
				c0.15-0.04,0.42,0.38,1.51,1.41C596.98,592.25,595.04,593.09,593.1,593.93z M675,591.7c-1.08,0.49-3.12,1.42-5.16,2.36
				c1.47,0.85,4.02,1.53,4.66,0.71c1.59-2.03,2.9-4.67,3.23-7.2c0.43-3.31-1.35-6.26-5.08-5.69c-1.48,0.23-3.94,3.65-3.54,4.6
				C669.91,588.36,672.37,589.53,675,591.7z M633.12,583.01c0.01-0.32,0.02-0.64,0.03-0.96c-1.95,0.2-5.06-0.26-5.61,0.72
				c-1.42,2.52-2.28,5.69-2.18,8.57c0.05,1.4,2.55,3.32,4.29,3.82c1.03,0.3,3.44-1.42,3.93-2.72c0.49-1.32-0.12-3.77-1.17-4.74
				c-1.03-0.96-3.2-0.7-4.87-0.97c-0.16-0.38-0.32-0.75-0.49-1.13C629.08,584.75,631.1,583.88,633.12,583.01z M573.22,581.64
				c-0.45,0.09-0.89,0.18-1.34,0.27c-0.42,4.35-0.84,8.7-1.26,13.04c0.33,0.05,0.66,0.11,1,0.17c0.74-1.35,1.47-2.69,2.86-5.22
				c0.52,2.71,0.76,3.94,1,5.17c0.4,0,0.79,0,1.19-0.01c0.58-4.26,1.17-8.52,1.75-12.77C575.92,584.01,574.48,586.76,573.22,581.64z
				 M660.8,584.61c1.57-0.61,3.34-1.29,5.11-1.97c-0.07-0.25-0.13-0.5-0.2-0.75c-2.17,0-4.35,0-6.74,0c0,2.27,0,4.22,0,5.24
				c2.16,1.52,3.8,2.66,5.43,3.81c-1.93,1.04-3.87,2.07-6.59,3.53c2.29,0.13,4.64,0.81,6.53,0.16c1.18-0.4,2.7-3.39,2.25-4.22
				C665.52,588.42,663.35,587.03,660.8,584.61z M580.27,594.88c3.74,0,6.56,0,9.39,0c0.02-0.31,0.03-0.63,0.05-0.94
				c-1.46-0.27-2.92-0.55-4.52-0.85c1.83-3.49,6.4-6.16,2.71-10.27c-2.1-2.34-4.74-1.51-6.72,0.67c2,0.56,3.79,1.06,5.59,1.56
				c-0.87,1.88-1.56,3.86-2.65,5.59C583.21,592.08,581.83,593.21,580.27,594.88z M618.12,593.15c1.94-3.57,6.46-6.24,2.76-10.34
				c-2.05-2.26-4.72-1.61-6.63,0.75c1.9,0.4,3.63,0.76,5.35,1.12c-0.83,2.02-1.46,4.16-2.55,6.03c-0.84,1.44-2.24,2.56-3.69,4.14
				c3.66,0,6.47,0,9.28,0c0.01-0.32,0.02-0.63,0.03-0.95C621.27,593.68,619.87,593.44,618.12,593.15z M603.48,593.51
				c-0.15,0.37-0.29,0.74-0.44,1.11c2.32,0,4.8,0.45,6.89-0.25c0.71-0.23,0.47-3.35,0.64-5.16c0.07-0.7,0.2-1.44,0.05-2.11
				c-0.37-1.66-0.43-4.24-1.44-4.71c-1.51-0.72-3.72,0.05-5.64,0.18c0.08,0.37,0.15,0.74,0.23,1.11c1.61,0.26,3.21,0.52,4.82,0.77
				c-0.83,1.49-1.65,2.98-2.19,3.95c0.9,1.29,1.78,2.56,2.67,3.82C607.21,592.65,605.34,593.08,603.48,593.51z"/>
			<path class="st1" d="M223.19,351.75c13.62-34.37,26.85-67.75,40.3-101.68c1.72,0.65,3.23,1.16,4.7,1.77
				c22.92,9.46,45.84,18.93,68.75,28.41c1.69,0.7,3.32,1.53,5,2.26c19.6,8.55,28.74,23.15,28.09,44.87
				c-0.76,25.47-0.14,50.98-0.13,76.47c0,1.31-0.15,2.61-0.25,4.22c-117.88,0-235.59,0-353.64,0c-0.11-1.36-0.31-2.63-0.31-3.91
				c0.01-25.49,0.75-51.01-0.15-76.47c-0.82-23.29,9.92-37.81,30.55-46.35c24.6-10.19,49.22-20.35,73.83-30.5
				c0.59-0.24,1.25-0.3,2.3-0.53c12.91,32.55,25.77,64.99,39.05,98.51c0.75-2.21,1.26-3.45,1.59-4.73
				c4.6-18.24,8.98-36.54,13.87-54.7c1.33-4.94,1.12-8.65-3.24-11.63c-1.1-0.75-2.15-1.59-2.89-2.15
				c7.68-7.53,14.86-14.57,21.95-21.53c6.17,6.28,13.21,13.45,20.47,20.84c0.09-0.39,0.11-0.15,0.01-0.08
				c-7.78,5.23-6.78,11.99-4.54,19.9c4.85,17.13,8.81,34.51,13.14,51.79C221.99,347.92,222.46,349.31,223.19,351.75z"/>
			<path class="st2" d="M197.97,14.67c32.82,1.78,58.44,21.15,73.72,55.08c6.35,14.11,9.37,29.12,10.14,44.55
				c0.15,3.04,0.86,4.65,4.21,5.49c6.41,1.61,9.84,6.46,9.66,13.44c-0.31,12.26-6.56,21.27-16.12,28.46
				c-2.23,1.67-4.38,4.09-5.38,6.64c-7.94,20.16-21.03,36.52-36.85,50.94c-4.78,4.36-9.36,8.98-14.47,12.92
				c-8.31,6.41-17.79,10.66-28.36,11.07c-14.06,0.55-26.56-4.2-36.76-13.9c-9.34-8.89-18.57-17.96-27.12-27.6
				c-8.79-9.91-14.64-21.76-19.64-34.02c-0.92-2.26-2.75-4.48-4.75-5.91c-8.53-6.11-14.14-14.06-16.06-24.38
				c-1.73-9.29,1.67-15.12,10.64-17.95c3.27-1.03,2.77-3.25,2.91-5.46c1.09-16.95,4.73-33.26,12.15-48.62
				C131.13,33.81,160.32,14.62,197.97,14.67z"/>
			<path d="M640.31,595.43c-3.46-0.1-4.91-2.38-3.76-5.63c0.37-1.06,0.03-2.35,0.31-3.46c0.38-1.44,0.7-3.3,1.72-4.05
				c0.9-0.67,3.18-0.6,4.05,0.11c0.96,0.79,1.07,2.67,1.4,4.11c0.26,1.11,0.11,2.33,0.45,3.41
				C645.52,593.21,643.81,595.53,640.31,595.43z"/>
			<path class="st3" d="M650.39,580.61c2.37,2.37,4.99,4.71,4.85,4.88c-2.33,2.96,4.7,10.45-4.47,9.82
				c-2.69-0.18-4.74-1.69-3.45-5.14c0.44-1.19,0.14-2.65,0.54-3.86C648.47,584.5,649.39,582.81,650.39,580.61z"/>
			<path class="st3" d="M593.1,593.93c1.94-0.84,3.88-1.69,6.26-2.73c-1.09-1.04-1.36-1.45-1.51-1.41c-2.94,0.79-5.8,0.57-5.81-3.05
				c0-1.69,1.98-4.5,3.5-4.85c3.4-0.77,5.39,1.89,5.17,5.05c-0.19,2.59-1.17,5.42-2.67,7.51c-0.69,0.96-3.49,0.4-5.33,0.54
				C592.83,594.64,592.97,594.29,593.1,593.93z"/>
			<path class="st3" d="M675,591.7c-2.63-2.17-5.09-3.35-5.89-5.23c-0.4-0.94,2.06-4.37,3.54-4.6c3.73-0.57,5.51,2.39,5.08,5.69
				c-0.33,2.54-1.64,5.17-3.23,7.2c-0.64,0.82-3.19,0.13-4.66-0.71C671.88,593.12,673.92,592.19,675,591.7z"/>
			<path class="st3" d="M633.12,583.01c-2.02,0.87-4.05,1.74-6.07,2.6c0.16,0.38,0.32,0.75,0.49,1.13c1.67,0.27,3.85,0.01,4.87,0.97
				c1.04,0.98,1.66,3.42,1.17,4.74c-0.49,1.3-2.9,3.02-3.93,2.72c-1.74-0.51-4.24-2.43-4.29-3.82c-0.1-2.87,0.77-6.05,2.18-8.57
				c0.55-0.98,3.66-0.53,5.61-0.72C633.14,582.37,633.13,582.69,633.12,583.01z"/>
			<path class="st3" d="M573.22,581.64c1.26,5.13,2.7,2.37,5.19,0.65c-0.58,4.26-1.17,8.52-1.75,12.77c-0.4,0-0.79,0-1.19,0.01
				c-0.24-1.23-0.48-2.46-1-5.17c-1.38,2.53-2.12,3.88-2.86,5.22c-0.33-0.06-0.66-0.11-1-0.17c0.42-4.35,0.84-8.7,1.26-13.04
				C572.33,581.82,572.78,581.73,573.22,581.64z"/>
			<path class="st3" d="M660.8,584.61c2.55,2.42,4.72,3.81,5.79,5.8c0.45,0.84-1.07,3.82-2.25,4.22c-1.9,0.65-4.25-0.03-6.53-0.16
				c2.72-1.46,4.66-2.49,6.59-3.53c-1.63-1.15-3.27-2.29-5.43-3.81c0-1.02,0-2.97,0-5.24c2.4,0,4.57,0,6.74,0
				c0.07,0.25,0.13,0.5,0.2,0.75C664.14,583.32,662.37,584,660.8,584.61z"/>
			<path class="st3" d="M580.27,594.88c1.55-1.67,2.94-2.8,3.84-4.23c1.1-1.73,1.79-3.72,2.65-5.59c-1.8-0.5-3.59-1.01-5.59-1.56
				c1.98-2.18,4.62-3.01,6.72-0.67c3.69,4.11-0.88,6.78-2.71,10.27c1.6,0.3,3.06,0.57,4.52,0.85c-0.02,0.31-0.03,0.63-0.05,0.94
				C586.84,594.88,584.01,594.88,580.27,594.88z"/>
			<path class="st3" d="M618.12,593.15c1.75,0.29,3.16,0.52,4.56,0.75c-0.01,0.32-0.02,0.63-0.03,0.95c-2.81,0-5.63,0-9.28,0
				c1.45-1.58,2.85-2.69,3.69-4.14c1.09-1.87,1.72-4.01,2.55-6.03c-1.72-0.36-3.45-0.72-5.35-1.12c1.9-2.36,4.58-3.02,6.63-0.75
				C624.58,586.91,620.05,589.59,618.12,593.15z"/>
			<path class="st3" d="M603.48,593.51c1.87-0.43,3.74-0.86,5.6-1.29c-0.89-1.27-1.77-2.54-2.67-3.82c0.54-0.97,1.36-2.46,2.19-3.95
				c-1.61-0.26-3.21-0.52-4.82-0.77c-0.08-0.37-0.15-0.74-0.23-1.11c1.91-0.13,4.12-0.9,5.64-0.18c1.01,0.48,1.07,3.05,1.44,4.71
				c0.15,0.67,0.01,1.41-0.05,2.11c-0.17,1.8,0.07,4.92-0.64,5.16c-2.1,0.69-4.57,0.25-6.89,0.25
				C603.19,594.24,603.33,593.87,603.48,593.51z"/>
		</g>
	</g>
</g>
</svg>
