<svg id="Layer_1" data-name="Layer 1" xmlns="http://www.w3.org/2000/svg" viewBox="0 0 463.85 426.61"><defs><style>.cls-1{fill:#fff;}.cls-2{fill:#ea8254;}.cls-3{fill:#00ff12;}</style></defs><title>user-add</title><path class="cls-1" d="M382.9,644.59H114.8a27.06,27.06,0,0,1-.44-3.49q0-38.49.11-77c0-3.66.2-7.34.52-11,1.1-12.43,6.65-21.8,17.75-28.28,13.88-8.11,28.6-14,43.53-19.75,13.35-5.1,26.37-11.06,39.54-16.63,1.5-.64,3-1.19,5-1.94l38.86,97.8,1-.1q4.68-18.76,9.37-37.53c1.86-7.43,3.53-14.91,5.71-22.25,1.2-4,.81-7-2.75-9.47-1.5-1-2.85-2.25-4-3.19l22.13-21.84,20.68,20.9c-.05.12-.08.76-.41,1-6.83,4.52-6.72,10.3-4.65,17.65,5.3,18.9,9.73,38,15.62,57.43,13.28-33.33,26.55-66.66,40-100.46l37,15.31C363.09,546.09,356.77,593.21,382.9,644.59Z" transform="translate(-114.36 -250.77)"/><path class="cls-2" d="M291.46,250.77c34.38.25,64.8,21.71,79.31,56.17,6,14.13,8.87,28.93,9.88,44.15.17,2.51.4,4.12,3.49,5,7.64,2,11.21,7.86,10.2,16-1.39,11.27-7.28,19.75-16.41,26.31a14.37,14.37,0,0,0-4.82,5.85,127.08,127.08,0,0,1-31,45.46c-5.82,5.48-11.25,11.39-17.36,16.51-9.36,7.84-20.08,13.25-32.54,13.55-16.31.4-29.44-7.06-40.85-18-4.08-3.92-7.92-8.07-11.94-12.05a131.91,131.91,0,0,1-29.28-44.29,19.41,19.41,0,0,0-5.83-7.47c-8.83-6.89-14.83-15.32-15.59-26.73-.56-8.36,2.71-12.56,10.47-15.47,1.42-.53,2.89-2.9,3-4.54,1.17-14,3.46-27.79,8.73-40.88,12.32-30.63,33.37-51.35,66.62-57.89C282.13,251.47,286.83,251.28,291.46,250.77Z" transform="translate(-114.36 -250.77)"/><path class="cls-3" d="M392.22,584.76c0-52.26,42.24-93.45,92.88-93.34,51.65.12,93,41.17,93.11,92.94a92.93,92.93,0,0,1-92.74,93C434.38,677.57,392.43,635.91,392.22,584.76Zm92.43,68.29c37.65.42,68.88-30,69.33-67.45.46-38.14-29.66-69.43-67.33-69.94a68.7,68.7,0,1,0-2,137.39Z" transform="translate(-114.36 -250.77)"/><path class="cls-1" d="M497.55,572.05c0-9.12,0-17.58,0-26,0-4.82-1.77-9-6.59-10-9.47-1.95-18.85-1.19-18.06,13,.42,7.57.07,15.18.07,23.08-8.9,0-17.05,0-25.2,0s-11.44,3.57-11.53,11.68c-.11,9.68,3,12.83,12.82,12.84H473v13.35c0,4.34,0,8.67,0,13,0,4.84,2,8.76,6.81,9.82,9.73,2.1,18.72.39,17.8-12.73-.32-4.47-.05-9-.05-13.49v-9.95c8.87,0,16.86,0,24.84,0,8.67,0,11.85-3.36,11.85-12.28s-3.24-12.2-11.93-12.25C514.34,572,506.36,572.05,497.55,572.05Z" transform="translate(-114.36 -250.77)"/><path class="cls-3" d="M497.55,572.05c8.81,0,16.79,0,24.77,0,8.69.05,11.92,3.4,11.93,12.25s-3.18,12.24-11.85,12.28c-8,0-16,0-24.84,0v9.95c0,4.5-.27,9,.05,13.49.92,13.12-8.07,14.83-17.8,12.73-4.85-1.06-6.8-5-6.81-9.82,0-4.33,0-8.66,0-13V596.59H449.07c-9.79,0-12.93-3.16-12.82-12.84.09-8.11,3.48-11.61,11.53-11.68s16.3,0,25.2,0c0-7.9.35-15.51-.07-23.08-.79-14.14,8.59-14.9,18.06-13,4.82,1,6.6,5.17,6.59,10C497.54,554.47,497.55,562.93,497.55,572.05Z" transform="translate(-114.36 -250.77)"/></svg>